<svg width="141" height="60" viewBox="0 0 141 60" fill="none" xmlns="http://www.w3.org/2000/svg">
<path d="M0 0.0435232L140 0L140.018 59L0.0183422 59.0435L0 0.0435232Z" fill="currentColor"/>
<path d="M21.2111 27.1123L25.9516 27.1108C26.651 27.1106 27.3245 27.0586 27.9721 26.9547C28.6197 26.8509 29.1895 26.6565 29.6816 26.3714C30.1737 26.0603 30.5621 25.6328 30.8469 25.0887C31.1576 24.5446 31.3128 23.8322 31.3125 22.9515C31.3123 22.0707 31.1566 21.3584 30.8456 20.8145C30.5605 20.2706 30.1718 19.8562 29.6795 19.5714C29.1872 19.2607 28.6173 19.0537 27.9696 18.9503C27.322 18.8468 26.6484 18.7952 25.949 18.7955L21.2085 18.7969L21.2111 27.1123ZM15.1065 14.0583L27.6184 14.0544C29.354 14.0539 30.8306 14.3125 32.0483 14.8302C33.266 15.322 34.2505 15.9822 35.002 16.811C35.7794 17.6397 36.3366 18.585 36.6737 19.647C37.0367 20.7089 37.2184 21.8098 37.2188 22.9496C37.2191 24.0635 37.0381 25.1645 36.6758 26.2526C36.3394 27.3148 35.7827 28.2605 35.0058 29.0897C34.2549 29.9188 33.2707 30.5927 32.0533 31.1111C30.836 31.6037 29.3595 31.8502 27.6239 31.8508L21.2126 31.8528L21.2157 41.8001L15.1152 41.802L15.1065 14.0583Z" fill="black"/>
<path d="M37.492 27.8843C37.5693 26.5891 37.8928 25.514 38.4624 24.6589C39.032 23.8039 39.7571 23.1172 40.6377 22.5989C41.5183 22.0805 42.5026 21.7175 43.5905 21.5099C44.7043 21.2765 45.8182 21.1595 46.9321 21.1592C47.9423 21.1589 48.9656 21.2363 50.0018 21.3914C51.038 21.5206 51.9836 21.7923 52.8386 22.2065C53.6936 22.6207 54.3932 23.2033 54.9374 23.9544C55.4816 24.6795 55.7539 25.6509 55.7543 26.8684L55.7576 37.3208C55.7578 38.2275 55.8099 39.0953 55.9138 39.9242C56.0177 40.7531 56.1992 41.3747 56.4584 41.7891L50.863 41.7909C50.7593 41.4801 50.6685 41.1692 50.5907 40.8584C50.5388 40.5217 50.4998 40.1849 50.4738 39.8482C49.5934 40.7551 48.5574 41.3901 47.3659 41.7531C46.1744 42.1161 44.9569 42.2979 43.7135 42.2982C42.7551 42.2985 41.8613 42.1822 41.0323 41.9494C40.2033 41.7165 39.4779 41.354 38.856 40.862C38.2341 40.3701 37.7418 39.7485 37.3789 38.9974C37.0419 38.2463 36.8732 37.3526 36.8729 36.3164C36.8725 35.1766 37.0665 34.244 37.4549 33.5186C37.8691 32.7672 38.387 32.1712 39.0086 31.7307C39.6561 31.2901 40.3813 30.9661 41.1843 30.7586C42.0131 30.5252 42.842 30.3436 43.6709 30.2138C44.4998 30.084 45.3158 29.9802 46.1188 29.9022C46.9218 29.8242 47.6341 29.7074 48.2558 29.5518C48.8775 29.3962 49.3696 29.1759 49.7322 28.8908C50.0947 28.5798 50.263 28.1394 50.2369 27.5695C50.2367 26.9737 50.1329 26.5075 49.9256 26.1708C49.7441 25.8082 49.485 25.5363 49.1482 25.355C48.8373 25.1479 48.4616 25.0185 48.0212 24.9668C47.6067 24.8892 47.1534 24.8505 46.6612 24.8507C45.5732 24.851 44.7185 25.0844 44.0969 25.5509C43.4753 26.0174 43.1129 26.7946 43.0096 27.8826L37.492 27.8843ZM50.2382 31.9603C50.0052 32.1676 49.7073 32.3361 49.3447 32.4657C49.008 32.5695 48.6324 32.6602 48.2179 32.7381C47.8294 32.8159 47.4149 32.8808 46.9746 32.9328C46.5342 32.9847 46.0939 33.0496 45.6535 33.1275C45.2391 33.2053 44.8246 33.309 44.4102 33.4387C44.0217 33.5683 43.672 33.7498 43.3612 33.983C43.0764 34.1903 42.8433 34.4624 42.6621 34.7992C42.4808 35.136 42.3903 35.5635 42.3905 36.0816C42.3906 36.5738 42.4814 36.9882 42.6629 37.3249C42.8443 37.6616 43.0905 37.9335 43.4014 38.1407C43.7123 38.3219 44.075 38.4513 44.4895 38.5289C44.904 38.6065 45.3314 38.6452 45.7718 38.6451C46.8598 38.6447 47.7016 38.4631 48.2973 38.1003C48.893 37.7374 49.3332 37.3099 49.618 36.8176C49.9028 36.2994 50.0711 35.7813 50.1227 35.2632C50.2003 34.7451 50.239 34.3306 50.2389 34.0197L50.2382 31.9603Z" fill="black"/>
<path d="M57.3155 21.7L62.5611 21.6983L62.562 24.496L62.6786 24.496C63.3776 23.3301 64.284 22.4879 65.3978 21.9694C66.5115 21.4251 67.6512 21.1528 68.8169 21.1524C70.2934 21.1519 71.4981 21.3588 72.4307 21.773C73.3893 22.1612 74.1407 22.718 74.685 23.4431C75.2292 24.1424 75.605 25.01 75.8126 26.0462C76.0461 27.0564 76.163 28.1832 76.1634 29.4266L76.1672 41.783L70.6496 41.7847L70.646 30.4386C70.6455 28.7807 70.3861 27.5503 69.8678 26.7474C69.3494 25.9186 68.4297 25.5045 67.1085 25.5049C65.6061 25.5053 64.5182 25.959 63.845 26.8659C63.1718 27.7468 62.8355 29.2105 62.8361 31.257L62.8394 41.7872L57.3217 41.7889L57.3155 21.7Z" fill="black"/>
<path d="M91.8922 31.6754C91.892 30.8464 91.814 30.0564 91.6583 29.3052C91.5027 28.5281 91.2305 27.8547 90.8417 27.2849C90.4789 26.6892 89.9995 26.2101 89.4036 25.8476C88.8077 25.4852 88.0564 25.3041 87.1497 25.3044C86.2431 25.3046 85.4789 25.4862 84.8573 25.8491C84.2358 26.2119 83.7308 26.6913 83.3424 27.2872C82.9799 27.8831 82.7081 28.5697 82.527 29.3469C82.3718 30.0982 82.2944 30.8883 82.2946 31.7172C82.2949 32.4944 82.3858 33.2715 82.5674 34.0485C82.7489 34.8256 83.0341 35.5249 83.4229 36.1465C83.8375 36.7422 84.3428 37.2342 84.9387 37.6226C85.5605 37.9851 86.2989 38.1662 87.1537 38.1659C88.0604 38.1656 88.8116 37.9841 89.4072 37.6212C90.0288 37.2584 90.5209 36.779 90.8833 36.1831C91.2458 35.5613 91.5046 34.8618 91.6598 34.0846C91.815 33.3074 91.8925 32.5043 91.8922 31.6754ZM91.9723 39.2136L91.8946 39.2136C91.2473 40.3018 90.3927 41.0921 89.3308 41.5846C88.2947 42.0512 87.1161 42.2847 85.795 42.2852C84.2926 42.2856 82.9713 42.0011 81.8314 41.4315C80.6914 40.8361 79.7456 40.0463 78.9941 39.0622C78.2685 38.0521 77.7112 36.8995 77.3222 35.6044C76.9591 34.3093 76.7774 32.9623 76.7769 31.5635C76.7765 30.2165 76.9574 28.9212 77.3197 27.6777C77.7079 26.4082 78.2645 25.2942 78.9895 24.3355C79.7404 23.3768 80.6728 22.6123 81.7865 22.0421C82.9002 21.4459 84.1953 21.1476 85.6719 21.1472C86.8635 21.1468 87.9904 21.4055 89.0527 21.9232C90.1408 22.4151 90.9959 23.1531 91.6179 24.1373L91.6956 24.1372L91.6925 14.0345L97.2101 14.0328L97.2187 41.7765L91.9731 41.7781L91.9723 39.2136Z" fill="black"/>
<path d="M103.562 31.7495C103.562 32.5525 103.64 33.3426 103.796 34.1197C103.952 34.8708 104.211 35.5572 104.574 36.1788C104.962 36.7745 105.468 37.2536 106.09 37.616C106.711 37.9785 107.489 38.1596 108.421 38.1593C109.354 38.159 110.131 37.9774 110.752 37.6146C111.4 37.2517 111.905 36.7723 112.267 36.1764C112.656 35.5546 112.927 34.868 113.083 34.1168C113.238 33.3396 113.315 32.5495 113.315 31.7464C113.315 30.9434 113.237 30.1533 113.081 29.3762C112.925 28.5992 112.653 27.9128 112.265 27.3171C111.902 26.7214 111.396 26.2423 110.749 25.8799C110.127 25.4915 109.35 25.2975 108.417 25.2977C107.485 25.298 106.707 25.4926 106.086 25.8813C105.464 26.2442 104.959 26.7236 104.571 27.3195C104.208 27.9154 103.95 28.602 103.794 29.3791C103.639 30.1563 103.562 30.9464 103.562 31.7495ZM98.0443 31.7512C98.0439 30.1451 98.2895 28.6944 98.7813 27.399C99.273 26.0777 99.9721 24.9636 100.878 24.0567C101.785 23.1238 102.873 22.4111 104.142 21.9185C105.411 21.4001 106.836 21.1406 108.416 21.1401C109.996 21.1396 111.421 21.3982 112.69 21.9159C113.986 22.4077 115.087 23.1197 115.994 24.052C116.901 24.9583 117.6 26.072 118.093 27.393C118.586 28.6881 118.832 30.1386 118.833 31.7447C118.833 33.3508 118.588 34.8015 118.096 36.0969C117.604 37.3923 116.905 38.5064 115.999 39.4392C115.092 40.3462 113.991 41.0459 112.696 41.5385C111.427 42.0311 110.003 42.2776 108.422 42.2781C106.842 42.2786 105.417 42.033 104.148 41.5412C102.878 41.0494 101.79 40.3503 100.883 39.4439C99.9763 38.5116 99.2766 37.398 98.784 36.1029C98.2914 34.8078 98.0448 33.3573 98.0443 31.7512Z" fill="black"/>
<path d="M124.989 17.921L126.02 17.9207L126.799 20.2099L126.808 20.2099L127.544 17.9202L128.575 17.9199L128.576 21.2492L127.89 21.2494L127.89 18.89L127.88 18.89L127.065 21.2496L126.501 21.2498L125.684 18.914L125.675 18.914L125.676 21.2501L124.99 21.2503L124.989 17.921Z" fill="black"/>
<path d="M122.876 18.5372L121.878 18.5375L121.878 17.922L124.605 17.9212L124.605 18.5366L123.608 18.537L123.608 21.2507L122.876 21.2509L122.876 18.5372Z" fill="black"/>
<path d="M130.24 19.4372C130.239 16.7862 128.09 14.6379 125.439 14.6387C122.788 14.6395 120.639 16.7891 120.64 19.4402C120.641 22.0913 122.791 24.2396 125.442 24.2388L125.442 24.8729C122.441 24.8739 120.007 22.4417 120.006 19.4404C120.005 16.4392 122.437 14.0055 125.439 14.0045C128.44 14.0036 130.874 16.4358 130.874 19.437C130.875 22.4383 128.443 24.872 125.442 24.8729L125.442 24.2388C128.093 24.238 130.241 22.0883 130.24 19.4372Z" fill="black"/>
</svg>
